<svg width="50" height="50" viewBox="0 0 50 50" fill="none" xmlns="http://www.w3.org/2000/svg">
<path d="M45.8327 34.243C45.8327 36.5973 45.8327 37.7744 45.3571 38.3515C44.944 38.8528 44.3206 39.1328 43.6714 39.1085C42.9242 39.0805 42.0444 38.2985 40.2848 36.7344L29.8855 27.4905C28.9161 26.6289 28.4314 26.1981 28.2528 25.6893C28.096 25.2426 28.096 24.7557 28.2528 24.309C28.4314 23.8003 28.9161 23.3695 29.8855 22.5078L40.2848 13.264C42.0444 11.6999 42.9242 10.9179 43.6714 10.8899C44.3206 10.8656 44.944 11.1455 45.3571 11.6469C45.8327 12.224 45.8327 13.4011 45.8327 15.7553V34.243Z" stroke="black" stroke-width="3" stroke-linecap="round" stroke-linejoin="round"/>
<path d="M22.916 34.243C22.916 36.5973 22.916 37.7744 22.4405 38.3515C22.0273 38.8528 21.4039 39.1328 20.7548 39.1085C20.0075 39.0805 19.1277 38.2985 17.3681 36.7344L6.96879 27.4905C5.99944 26.6289 5.51477 26.1981 5.33615 25.6893C5.17929 25.2426 5.17929 24.7557 5.33615 24.309C5.51477 23.8003 5.99944 23.3695 6.96879 22.5078L17.3681 13.264C19.1277 11.6999 20.0075 10.9179 20.7548 10.8899C21.4039 10.8656 22.0273 11.1455 22.4405 11.6469C22.916 12.224 22.916 13.4011 22.916 15.7553V34.243Z" stroke="black" stroke-width="3" stroke-linecap="round" stroke-linejoin="round"/>
</svg>
