<svg width="50" height="50" viewBox="0 0 50 50" fill="none" xmlns="http://www.w3.org/2000/svg">
<path d="M25.0001 45.8332C36.506 45.8332 45.8334 36.5058 45.8334 24.9998C45.8334 13.4939 36.506 4.1665 25.0001 4.1665C13.4941 4.1665 4.16675 13.4939 4.16675 24.9998C4.16675 36.5058 13.4941 45.8332 25.0001 45.8332Z" stroke="black" stroke-width="3" stroke-linecap="round" stroke-linejoin="round"/>
<path d="M19.7917 18.6776C19.7917 17.6833 19.7917 17.1861 19.9995 16.9085C20.1806 16.6667 20.4578 16.5153 20.7592 16.4938C21.105 16.4691 21.5233 16.738 22.3597 17.2756L32.1943 23.5979C32.9201 24.0645 33.283 24.2978 33.4083 24.5944C33.5178 24.8536 33.5178 25.1461 33.4083 25.4053C33.283 25.7019 32.9201 25.9352 32.1943 26.4018L22.3597 32.724C21.5233 33.2617 21.105 33.5306 20.7592 33.5059C20.4578 33.4843 20.1806 33.333 19.9995 33.0911C19.7917 32.8136 19.7917 32.3164 19.7917 31.3221V18.6776Z" stroke="black" stroke-width="3" stroke-linecap="round" stroke-linejoin="round"/>
</svg>
